<svg width="20" height="20" viewBox="0 0 20 20" fill="none" xmlns="http://www.w3.org/2000/svg">
<path d="M18.395 13.1299C17.171 13.1299 15.968 12.9401 14.829 12.5601C14.271 12.3701 13.585 12.5399 13.244 12.8899L10.995 14.5901C8.387 13.2001 6.78101 11.59 5.40701 9.01001L7.05499 6.81006C7.48299 6.39006 7.637 5.75993 7.453 5.17993C7.075 4.02993 6.883 2.8301 6.883 1.6001C6.883 0.720098 6.16302 0 5.27802 0H1.60501C0.720011 0 0 0.720098 0 1.6001C0 11.7501 8.25199 20 18.395 20C19.28 20 20 19.2799 20 18.3999V14.73C20 13.85 19.28 13.1299 18.395 13.1299Z" fill="#A8EBF9"/>
</svg>
